<svg width="868" height="419" viewBox="0 0 868 419" fill="none" xmlns="http://www.w3.org/2000/svg">
<rect width="868" height="419" fill="#922F34"/>
<g filter="url(#filter0_d)">
<path d="M198.915 77.8367C209.192 70.7165 222.808 70.7165 233.085 77.8367L311.338 132.052C319.427 137.656 324.253 146.871 324.253 156.712V275.288C324.253 285.129 319.427 294.344 311.338 299.948L233.085 354.163C222.808 361.283 209.192 361.283 198.915 354.163L120.662 299.948C112.573 294.344 107.747 285.129 107.747 275.288V156.712C107.747 146.871 112.573 137.656 120.662 132.052L198.915 77.8367Z" fill="#EC6E33"/>
</g>
<path d="M229.292 294C218.892 294 210.892 291.6 205.292 286.8C199.826 281.867 196.426 275.4 195.092 267.4V292H174.892V156.4H159.692C153.426 156.4 148.759 157.867 145.692 160.8C142.626 163.6 141.092 166.933 141.092 170.8C141.092 174.667 142.026 177.733 143.892 180C145.892 182.267 148.292 183.4 151.092 183.4C153.892 183.4 156.159 182.667 157.892 181.2C159.626 179.733 160.959 178.267 161.892 176.8C162.826 175.333 163.626 174.6 164.292 174.6C164.959 174.6 165.292 175.467 165.292 177.2C165.292 178.8 163.826 180.867 160.892 183.4C158.092 185.933 154.626 187.2 150.492 187.2C146.359 187.2 143.092 185.667 140.692 182.6C138.292 179.533 137.092 175.733 137.092 171.2C137.092 166.533 139.026 162.333 142.892 158.6C146.892 154.733 152.559 152.8 159.892 152.8H211.692C228.626 152.8 240.626 155.2 247.692 160C254.092 164.533 257.292 171.067 257.292 179.6C257.292 188 255.159 194.333 250.892 198.6C246.759 202.867 241.292 206.333 234.492 209C243.692 209 252.492 211.867 260.892 217.6C265.292 220.533 268.826 224.8 271.492 230.4C274.159 236 275.492 242.6 275.492 250.2C275.492 257.8 273.959 264.6 270.892 270.6C267.826 276.6 263.826 281.2 258.892 284.4C249.559 290.8 239.692 294 229.292 294ZM210.092 250C206.626 250 203.892 251.467 201.892 254.4C199.892 257.333 198.892 260.4 198.892 263.6C198.892 266.8 199.692 270.333 201.292 274.2C202.892 277.933 205.892 281.533 210.292 285C214.692 288.333 219.826 290 225.692 290C231.559 290 236.492 288.667 240.492 286C244.626 283.333 247.692 279.867 249.692 275.6C253.426 267.6 255.292 258.467 255.292 248.2C255.292 237.8 252.359 229.533 246.492 223.4C240.626 217.267 234.492 214.2 228.092 214.2C221.692 214.2 210.692 218.867 195.092 228.2V261.2C195.626 256.267 197.559 252.533 200.892 250C204.226 247.333 207.492 246 210.692 246C214.026 246 217.026 246.6 219.692 247.8C222.359 249 223.692 250.2 223.692 251.4C223.692 251.933 223.426 252.467 222.892 253C222.492 253.4 222.092 253.6 221.692 253.6C221.426 253.6 220.292 253 218.292 251.8C216.292 250.6 213.559 250 210.092 250ZM195.092 223.4L219.692 210.4C231.426 204.133 237.292 194.2 237.292 180.6C237.292 169.933 234.492 163.067 228.892 160C224.359 157.6 217.959 156.4 209.692 156.4H195.092V223.4Z" fill="white"/>
<path d="M404.145 178C410.678 179.467 415.878 182.333 419.745 186.6C423.745 190.867 425.745 195.867 425.745 201.6C425.745 209.333 422.478 215.533 415.945 220.2C409.411 224.733 400.611 227 389.545 227H347.745L346.345 223.4C349.678 222.467 352.078 221.6 353.545 220.8C355.011 219.867 356.011 218.667 356.545 217.2C357.078 215.733 357.345 213.467 357.345 210.4V156.2C357.345 151.533 356.945 148.133 356.145 146C355.478 143.867 353.811 142 351.145 140.4L348.745 139L349.545 136.4C353.811 135.067 359.278 134 365.945 133.2C372.745 132.267 378.878 131.8 384.345 131.8C396.078 131.8 405.211 134 411.745 138.4C418.411 142.8 421.745 148.933 421.745 156.8C421.745 161.733 420.145 166.067 416.945 169.8C413.878 173.4 409.611 176.133 404.145 178ZM389.345 222.6C394.145 222.6 398.078 220.667 401.145 216.8C404.345 212.933 405.945 208 405.945 202C405.945 195.867 403.878 190.867 399.745 187C395.611 183.133 389.745 180.533 382.145 179.2V176.8C388.278 176.8 393.078 175 396.545 171.4C400.145 167.8 401.945 162.933 401.945 156.8C401.945 150.667 400.478 145.8 397.545 142.2C394.611 138.467 390.678 136.6 385.745 136.6C382.811 136.6 380.545 137.6 378.945 139.6C377.345 141.467 376.545 144.133 376.545 147.6V204.8C376.545 210.267 377.678 214.6 379.945 217.8C382.345 221 385.478 222.6 389.345 222.6ZM436.388 223.4C439.455 222.6 441.655 221.8 442.988 221C444.455 220.067 445.388 218.867 445.788 217.4C446.322 215.8 446.588 213.467 446.588 210.4V158.4C446.588 152 446.055 147.533 444.988 145C444.055 142.333 441.655 139.4 437.788 136.2L439.588 133.6H473.388L474.788 136.8C470.922 139.067 468.455 141.2 467.388 143.2C466.322 145.067 465.788 148.467 465.788 153.4V202.6C465.788 208.867 466.255 213.333 467.188 216C468.255 218.533 470.655 221.4 474.388 224.6L472.788 227H437.788L436.388 223.4ZM575.179 220.2C572.246 223.267 569.246 225.467 566.179 226.8C563.112 228.133 559.712 228.8 555.979 228.8C550.779 228.8 546.779 227.533 543.979 225C541.179 222.333 538.512 217.667 535.979 211L528.379 191.4C526.779 187.8 525.246 185.2 523.779 183.6C522.312 181.867 519.912 181 516.579 181V202.6C516.579 208.733 517.046 213.133 517.979 215.8C519.046 218.333 521.446 221.267 525.179 224.6L523.779 227H487.779L486.379 223.4C489.712 222.467 492.112 221.6 493.579 220.8C495.046 219.867 496.046 218.667 496.579 217.2C497.112 215.733 497.379 213.467 497.379 210.4V158.4C497.379 152 496.846 147.533 495.779 145C494.846 142.333 492.512 139.4 488.779 136.2L490.379 133.6H525.179L526.579 136.8C522.312 139.067 519.579 141.2 518.379 143.2C517.179 145.2 516.579 148.6 516.579 153.4V178.2H517.179L540.979 151.2C542.179 149.733 542.979 148.467 543.379 147.4C543.912 146.2 544.246 144.867 544.379 143.4C544.379 142.467 543.846 140.667 542.779 138L541.579 135.8L544.179 133.6H567.779L568.979 137.2L564.379 138.6C560.646 140.2 557.112 142.867 553.779 146.6L525.779 178.6C532.712 179.133 538.179 180.6 542.179 183C546.179 185.267 549.112 188.667 550.979 193.2L560.179 216.4C560.846 218.133 561.646 219.4 562.579 220.2C563.512 220.867 564.712 221.2 566.179 221.2C568.312 221.2 570.779 220.133 573.579 218L575.179 220.2ZM588.199 159.8C588.199 154.467 587.799 150.267 586.999 147.2C586.199 144.133 584.666 141.067 582.399 138L580.799 135.8L582.399 133.6H626.599C633.933 133.6 638.866 132.733 641.399 131L643.799 129.2L645.799 131V156L641.799 157.4C639.399 150.2 636.999 145.267 634.599 142.6C632.333 139.933 629.066 138.6 624.799 138.6H615.799C612.333 138.6 610.066 139.267 608.999 140.6C607.933 141.8 607.399 144.467 607.399 148.6V177H621.799C625.799 177 628.733 176.6 630.599 175.8C632.599 175 634.066 173.4 634.999 171L635.999 168.2L638.599 169.8V192.2L634.199 193.8L633.399 189.4C632.866 186.6 631.399 184.667 628.999 183.6C626.599 182.533 622.733 182 617.399 182H607.399V212.2C607.399 216.2 607.999 218.867 609.199 220.2C610.399 221.4 613.066 222 617.199 222H626.999C630.999 222 634.133 220.6 636.399 217.8C638.799 215 641.066 210.133 643.199 203.2L647.399 204.6V228.6L645.199 230.4C643.333 229.067 641.199 228.133 638.799 227.6C636.399 227.2 633.066 227 628.799 227H578.599L577.199 223.4C580.533 222.467 582.933 221.6 584.399 220.8C585.866 219.867 586.866 218.667 587.399 217.2C587.933 215.733 588.199 213.467 588.199 210.4V159.8ZM747.616 220.2C742.816 225.933 736.55 228.8 728.816 228.8C724.016 228.8 720.216 227.733 717.416 225.6C714.75 223.333 712.416 219.533 710.416 214.2L704.616 196.6C703.283 193 702.083 190.4 701.016 188.8C699.95 187.067 698.283 185.733 696.016 184.8L692.616 183L693.016 181C694.083 181.133 695.483 181.2 697.216 181.2C698.816 181.2 699.95 181.133 700.616 181C705.55 180.2 709.416 177.933 712.216 174.2C715.016 170.467 716.416 165.667 716.416 159.8C716.416 152.733 714.75 147.133 711.416 143C708.083 138.733 703.683 136.6 698.216 136.6C692.216 136.6 689.216 139.4 689.216 145V200.8C689.216 206 689.616 210.2 690.416 213.4C691.35 216.467 692.95 219.533 695.216 222.6L696.816 225L695.216 227H660.416L659.016 223.4C662.35 222.467 664.75 221.6 666.216 220.8C667.683 219.867 668.683 218.667 669.216 217.2C669.75 215.733 670.016 213.467 670.016 210.4V157.2C670.016 152.533 669.616 149 668.816 146.6C668.15 144.067 666.483 142 663.816 140.4L661.416 139L662.216 136.4C666.35 135.067 671.616 134 678.016 133.2C684.55 132.267 690.35 131.8 695.416 131.8C708.083 131.8 718.083 134.333 725.416 139.4C732.75 144.467 736.416 151.4 736.416 160.2C736.416 166.333 734.416 171.8 730.416 176.6C726.55 181.267 721.55 184.4 715.416 186C720.216 188.133 723.55 191.733 725.416 196.8L732.416 216.4C733.483 219.6 735.55 221.2 738.616 221.2C741.016 221.2 743.483 220.133 746.016 218L747.616 220.2Z" fill="white"/>
<path d="M378.727 271C378.883 270.641 379.047 270.273 379.219 269.898C379.391 269.508 379.57 269.07 379.758 268.586C379.961 268.102 380.18 267.555 380.414 266.945C380.648 266.336 380.914 265.617 381.211 264.789L388.219 245.406H391.992L399 264.789C399.297 265.602 399.562 266.32 399.797 266.945C400.031 267.555 400.242 268.102 400.43 268.586C400.633 269.07 400.812 269.508 400.969 269.898C401.141 270.289 401.297 270.656 401.438 271H397.852L395.461 264.25H384.68L382.336 271H378.727ZM390.07 248.828L385.641 261.531H394.523L390.07 248.828ZM423.492 268.117C425.211 268.117 426.734 268.109 428.062 268.094C429.406 268.062 430.43 267.977 431.133 267.836V271H415.969C416.094 270.297 416.164 269.289 416.18 267.977C416.211 266.648 416.227 265.117 416.227 263.383V253.023C416.227 251.289 416.211 249.766 416.18 248.453C416.164 247.125 416.094 246.109 415.969 245.406H419.578V268.117H423.492ZM448.477 256.164V258.977H438.516V268.117H443.133C444.852 268.117 446.305 268.109 447.492 268.094C448.68 268.062 449.625 267.977 450.328 267.836V271H434.906C435.031 270.297 435.102 269.289 435.117 267.977C435.148 266.648 435.164 265.117 435.164 263.383V253.023C435.164 251.289 435.148 249.766 435.117 248.453C435.102 247.125 435.031 246.109 434.906 245.406H449.789V248.289H438.516V256.164H448.477ZM474.797 268.281C473.891 268.922 473.039 269.445 472.242 269.852C471.445 270.258 470.672 270.578 469.922 270.812C469.172 271.047 468.438 271.211 467.719 271.305C467 271.398 466.266 271.445 465.516 271.445C463.859 271.445 462.328 271.164 460.922 270.602C459.531 270.023 458.328 269.18 457.312 268.07C456.312 266.961 455.523 265.594 454.945 263.969C454.383 262.344 454.102 260.477 454.102 258.367C454.102 256.273 454.414 254.398 455.039 252.742C455.68 251.07 456.539 249.664 457.617 248.523C458.711 247.367 459.992 246.484 461.461 245.875C462.93 245.266 464.508 244.961 466.195 244.961C466.898 244.961 467.586 244.992 468.258 245.055C468.93 245.117 469.602 245.242 470.273 245.43C470.945 245.602 471.625 245.852 472.312 246.18C473.016 246.492 473.75 246.906 474.516 247.422L473.391 250.562C472.734 250.047 472.094 249.625 471.469 249.297C470.859 248.953 470.258 248.688 469.664 248.5C469.086 248.297 468.508 248.156 467.93 248.078C467.352 248 466.773 247.961 466.195 247.961C464.852 247.961 463.641 248.195 462.562 248.664C461.5 249.133 460.594 249.797 459.844 250.656C459.094 251.516 458.516 252.562 458.109 253.797C457.719 255.031 457.523 256.406 457.523 257.922C457.523 259.547 457.711 261.008 458.086 262.305C458.477 263.586 459.023 264.68 459.727 265.586C460.445 266.477 461.305 267.164 462.305 267.648C463.32 268.133 464.453 268.375 465.703 268.375C466.219 268.375 466.711 268.352 467.18 268.305C467.648 268.258 468.109 268.172 468.562 268.047C469.016 267.906 469.477 267.734 469.945 267.531C470.414 267.312 470.922 267.039 471.469 266.711V260.828H465.328V257.922H474.797V268.281ZM493.711 256.164V258.977H483.75V268.117H488.367C490.086 268.117 491.539 268.109 492.727 268.094C493.914 268.062 494.859 267.977 495.562 267.836V271H480.141C480.266 270.297 480.336 269.289 480.352 267.977C480.383 266.648 480.398 265.117 480.398 263.383V253.023C480.398 251.289 480.383 249.766 480.352 248.453C480.336 247.125 480.266 246.109 480.141 245.406H495.023V248.289H483.75V256.164H493.711ZM503.648 250.844V271H500.484C500.609 270.297 500.68 269.289 500.695 267.977C500.727 266.648 500.742 265.117 500.742 263.383V253.023C500.742 251.289 500.727 249.766 500.695 248.453C500.68 247.125 500.609 246.109 500.484 245.406H503.648L517.57 265.656V245.406H520.711C520.602 246.109 520.531 247.125 520.5 248.453C520.484 249.766 520.477 251.289 520.477 253.023V271H517.57L503.648 250.844ZM527.039 253.469C527.039 252.609 527.039 251.773 527.039 250.961C527.039 250.133 527.031 249.367 527.016 248.664C527 247.961 526.969 247.328 526.922 246.766C526.891 246.203 526.844 245.75 526.781 245.406C527.156 245.391 527.664 245.375 528.305 245.359C528.961 245.328 529.664 245.305 530.414 245.289C531.18 245.273 531.945 245.266 532.711 245.266C533.477 245.25 534.156 245.242 534.75 245.242C535.375 245.242 536.109 245.297 536.953 245.406C537.812 245.5 538.695 245.703 539.602 246.016C540.508 246.328 541.398 246.773 542.273 247.352C543.164 247.914 543.961 248.672 544.664 249.625C545.367 250.562 545.93 251.719 546.352 253.094C546.789 254.469 547.008 256.109 547.008 258.016C547.008 259.75 546.812 261.281 546.422 262.609C546.047 263.938 545.531 265.094 544.875 266.078C544.234 267.047 543.484 267.859 542.625 268.516C541.781 269.172 540.891 269.703 539.953 270.109C539.016 270.5 538.07 270.781 537.117 270.953C536.164 271.109 535.258 271.188 534.398 271.188C534.117 271.188 533.789 271.18 533.414 271.164C533.055 271.164 532.664 271.156 532.242 271.141C531.836 271.141 531.414 271.133 530.977 271.117C530.555 271.117 530.141 271.109 529.734 271.094C528.781 271.062 527.797 271.031 526.781 271C526.844 270.656 526.891 270.211 526.922 269.664C526.953 269.102 526.977 268.477 526.992 267.789C527.008 267.086 527.016 266.336 527.016 265.539C527.016 264.727 527.023 263.891 527.039 263.031V253.469ZM530.391 268.117C530.797 268.148 531.328 268.188 531.984 268.234C532.641 268.266 533.391 268.281 534.234 268.281C535.406 268.281 536.555 268.102 537.68 267.742C538.805 267.383 539.805 266.812 540.68 266.031C541.555 265.25 542.258 264.234 542.789 262.984C543.336 261.719 543.609 260.18 543.609 258.367C543.609 256.414 543.359 254.781 542.859 253.469C542.359 252.141 541.688 251.078 540.844 250.281C540 249.484 539.016 248.914 537.891 248.57C536.766 248.227 535.57 248.055 534.305 248.055C534.023 248.055 533.695 248.055 533.32 248.055C532.961 248.055 532.602 248.062 532.242 248.078C531.883 248.078 531.539 248.086 531.211 248.102C530.883 248.102 530.609 248.102 530.391 248.102V268.117ZM549.82 271C549.977 270.641 550.141 270.273 550.312 269.898C550.484 269.508 550.664 269.07 550.852 268.586C551.055 268.102 551.273 267.555 551.508 266.945C551.742 266.336 552.008 265.617 552.305 264.789L559.312 245.406H563.086L570.094 264.789C570.391 265.602 570.656 266.32 570.891 266.945C571.125 267.555 571.336 268.102 571.523 268.586C571.727 269.07 571.906 269.508 572.062 269.898C572.234 270.289 572.391 270.656 572.531 271H568.945L566.555 264.25H555.773L553.43 271H549.82ZM561.164 248.828L556.734 261.531H565.617L561.164 248.828ZM580.031 263.383C580.031 265.117 580.039 266.648 580.055 267.977C580.07 269.305 580.141 270.312 580.266 271H576.422C576.547 270.297 576.617 269.289 576.633 267.977C576.664 266.648 576.68 265.117 576.68 263.383V253.469C576.68 252.609 576.68 251.773 576.68 250.961C576.68 250.133 576.672 249.367 576.656 248.664C576.641 247.961 576.609 247.328 576.562 246.766C576.531 246.203 576.484 245.75 576.422 245.406C577 245.391 577.664 245.367 578.414 245.336C579.055 245.305 579.805 245.281 580.664 245.266C581.539 245.25 582.492 245.242 583.523 245.242C584.883 245.242 586.125 245.383 587.25 245.664C588.375 245.93 589.344 246.352 590.156 246.93C590.969 247.508 591.594 248.25 592.031 249.156C592.484 250.062 592.711 251.148 592.711 252.414C592.711 253.477 592.539 254.422 592.195 255.25C591.867 256.062 591.43 256.766 590.883 257.359C590.352 257.953 589.742 258.445 589.055 258.836C588.367 259.211 587.672 259.5 586.969 259.703C587.312 260.172 587.734 260.758 588.234 261.461C588.75 262.148 589.297 262.883 589.875 263.664C590.453 264.445 591.039 265.234 591.633 266.031C592.227 266.828 592.781 267.57 593.297 268.258C593.812 268.93 594.258 269.516 594.633 270.016C595.023 270.5 595.297 270.828 595.453 271H590.953L583.57 260.055H580.031V263.383ZM580.031 257.336H583.336C585.32 257.336 586.828 256.93 587.859 256.117C588.891 255.289 589.406 254.141 589.406 252.672C589.406 251.172 588.93 250.031 587.977 249.25C587.023 248.453 585.477 248.055 583.336 248.055C582.727 248.055 582.133 248.062 581.555 248.078C580.992 248.078 580.484 248.086 580.031 248.102V257.336ZM601.195 245.406L608.109 256.984L614.672 245.406H618.703C618.188 246.156 617.727 246.828 617.32 247.422C616.93 248.016 616.562 248.586 616.219 249.133C615.891 249.664 615.57 250.188 615.258 250.703C614.961 251.219 614.648 251.758 614.32 252.32L609.609 260.43V263.383C609.609 265.117 609.617 266.648 609.633 267.977C609.648 269.289 609.719 270.297 609.844 271H606C606.125 270.297 606.195 269.289 606.211 267.977C606.242 266.648 606.258 265.117 606.258 263.383V260.289L601.617 252.32C601.289 251.742 600.961 251.18 600.633 250.633C600.305 250.086 599.961 249.539 599.602 248.992C599.258 248.43 598.883 247.859 598.477 247.281C598.07 246.688 597.625 246.062 597.141 245.406H601.195ZM631.008 271C631.164 270.641 631.328 270.273 631.5 269.898C631.672 269.508 631.852 269.07 632.039 268.586C632.242 268.102 632.461 267.555 632.695 266.945C632.93 266.336 633.195 265.617 633.492 264.789L640.5 245.406H644.273L651.281 264.789C651.578 265.602 651.844 266.32 652.078 266.945C652.312 267.555 652.523 268.102 652.711 268.586C652.914 269.07 653.094 269.508 653.25 269.898C653.422 270.289 653.578 270.656 653.719 271H650.133L647.742 264.25H636.961L634.617 271H631.008ZM642.352 248.828L637.922 261.531H646.805L642.352 248.828ZM661.219 263.383C661.219 265.117 661.227 266.648 661.242 267.977C661.258 269.305 661.328 270.312 661.453 271H657.609C657.734 270.297 657.805 269.289 657.82 267.977C657.852 266.648 657.867 265.117 657.867 263.383V253.469C657.867 252.609 657.867 251.773 657.867 250.961C657.867 250.133 657.859 249.367 657.844 248.664C657.828 247.961 657.797 247.328 657.75 246.766C657.719 246.203 657.672 245.75 657.609 245.406C658.328 245.391 659.102 245.367 659.93 245.336C660.633 245.305 661.43 245.281 662.32 245.266C663.211 245.25 664.125 245.242 665.062 245.242C666.469 245.242 667.742 245.406 668.883 245.734C670.039 246.047 671.016 246.531 671.812 247.188C672.625 247.828 673.25 248.633 673.688 249.602C674.125 250.555 674.344 251.672 674.344 252.953C674.344 254.234 674.125 255.391 673.688 256.422C673.266 257.453 672.656 258.328 671.859 259.047C671.062 259.766 670.086 260.32 668.93 260.711C667.789 261.086 666.5 261.273 665.062 261.273C664.406 261.273 663.734 261.266 663.047 261.25C662.375 261.219 661.766 261.164 661.219 261.086V263.383ZM661.219 258.367C661.766 258.445 662.328 258.5 662.906 258.531C663.5 258.547 664.125 258.555 664.781 258.555C666.016 258.555 667.031 258.414 667.828 258.133C668.641 257.836 669.281 257.453 669.75 256.984C670.234 256.5 670.57 255.945 670.758 255.32C670.945 254.68 671.039 254.008 671.039 253.305C671.039 252.602 670.938 251.938 670.734 251.312C670.531 250.672 670.188 250.109 669.703 249.625C669.234 249.141 668.602 248.758 667.805 248.477C667.023 248.195 666.047 248.055 664.875 248.055C664.469 248.055 664.102 248.055 663.773 248.055C663.445 248.055 663.141 248.062 662.859 248.078C662.578 248.078 662.305 248.086 662.039 248.102C661.789 248.102 661.516 248.102 661.219 248.102V258.367ZM682.172 263.383C682.172 265.117 682.18 266.648 682.195 267.977C682.211 269.305 682.281 270.312 682.406 271H678.562C678.688 270.297 678.758 269.289 678.773 267.977C678.805 266.648 678.82 265.117 678.82 263.383V253.469C678.82 252.609 678.82 251.773 678.82 250.961C678.82 250.133 678.812 249.367 678.797 248.664C678.781 247.961 678.75 247.328 678.703 246.766C678.672 246.203 678.625 245.75 678.562 245.406C679.281 245.391 680.055 245.367 680.883 245.336C681.586 245.305 682.383 245.281 683.273 245.266C684.164 245.25 685.078 245.242 686.016 245.242C687.422 245.242 688.695 245.406 689.836 245.734C690.992 246.047 691.969 246.531 692.766 247.188C693.578 247.828 694.203 248.633 694.641 249.602C695.078 250.555 695.297 251.672 695.297 252.953C695.297 254.234 695.078 255.391 694.641 256.422C694.219 257.453 693.609 258.328 692.812 259.047C692.016 259.766 691.039 260.32 689.883 260.711C688.742 261.086 687.453 261.273 686.016 261.273C685.359 261.273 684.688 261.266 684 261.25C683.328 261.219 682.719 261.164 682.172 261.086V263.383ZM682.172 258.367C682.719 258.445 683.281 258.5 683.859 258.531C684.453 258.547 685.078 258.555 685.734 258.555C686.969 258.555 687.984 258.414 688.781 258.133C689.594 257.836 690.234 257.453 690.703 256.984C691.188 256.5 691.523 255.945 691.711 255.32C691.898 254.68 691.992 254.008 691.992 253.305C691.992 252.602 691.891 251.938 691.688 251.312C691.484 250.672 691.141 250.109 690.656 249.625C690.188 249.141 689.555 248.758 688.758 248.477C687.977 248.195 687 248.055 685.828 248.055C685.422 248.055 685.055 248.055 684.727 248.055C684.398 248.055 684.094 248.062 683.812 248.078C683.531 248.078 683.258 248.086 682.992 248.102C682.742 248.102 682.469 248.102 682.172 248.102V258.367ZM699.961 269.078C699.961 268.75 700.016 268.445 700.125 268.164C700.25 267.867 700.414 267.617 700.617 267.414C700.836 267.195 701.086 267.023 701.367 266.898C701.664 266.773 701.977 266.711 702.305 266.711C702.633 266.711 702.938 266.773 703.219 266.898C703.5 267.023 703.75 267.195 703.969 267.414C704.188 267.617 704.359 267.867 704.484 268.164C704.609 268.445 704.672 268.75 704.672 269.078C704.672 269.406 704.609 269.711 704.484 269.992C704.359 270.273 704.188 270.523 703.969 270.742C703.75 270.961 703.5 271.133 703.219 271.258C702.938 271.383 702.633 271.445 702.305 271.445C701.977 271.445 701.664 271.383 701.367 271.258C701.086 271.133 700.836 270.961 700.617 270.742C700.414 270.523 700.25 270.273 700.125 269.992C700.016 269.711 699.961 269.406 699.961 269.078Z" fill="white"/>
<defs>
<filter id="filter0_d" x="103.747" y="72.4966" width="224.506" height="295.007" filterUnits="userSpaceOnUse" color-interpolation-filters="sRGB">
<feFlood flood-opacity="0" result="BackgroundImageFix"/>
<feColorMatrix in="SourceAlpha" type="matrix" values="0 0 0 0 0 0 0 0 0 0 0 0 0 0 0 0 0 0 127 0"/>
<feOffset dy="4"/>
<feGaussianBlur stdDeviation="2"/>
<feColorMatrix type="matrix" values="0 0 0 0 0 0 0 0 0 0 0 0 0 0 0 0 0 0 0.25 0"/>
<feBlend mode="normal" in2="BackgroundImageFix" result="effect1_dropShadow"/>
<feBlend mode="normal" in="SourceGraphic" in2="effect1_dropShadow" result="shape"/>
</filter>
</defs>
</svg>
