<svg width="868" height="545" viewBox="0 0 868 545" fill="none" xmlns="http://www.w3.org/2000/svg">
<rect width="868" height="545" fill="#922F34"/>
<g filter="url(#filter0_d)">
<path d="M416.915 43.8367C427.192 36.7165 440.808 36.7165 451.085 43.8367L529.338 98.0521C537.427 103.656 542.253 112.871 542.253 122.712V241.288C542.253 251.129 537.427 260.344 529.338 265.948L451.085 320.163C440.808 327.283 427.192 327.283 416.915 320.163L338.662 265.948C330.573 260.344 325.747 251.129 325.747 241.288V122.712C325.747 112.871 330.573 103.656 338.662 98.0521L416.915 43.8367Z" fill="#EC6E33"/>
</g>
<path d="M447.292 260C436.892 260 428.892 257.6 423.292 252.8C417.826 247.867 414.426 241.4 413.092 233.4V258H392.892V122.4H377.692C371.426 122.4 366.759 123.867 363.692 126.8C360.626 129.6 359.092 132.933 359.092 136.8C359.092 140.667 360.026 143.733 361.892 146C363.892 148.267 366.292 149.4 369.092 149.4C371.892 149.4 374.159 148.667 375.892 147.2C377.626 145.733 378.959 144.267 379.892 142.8C380.826 141.333 381.626 140.6 382.292 140.6C382.959 140.6 383.292 141.467 383.292 143.2C383.292 144.8 381.826 146.867 378.892 149.4C376.092 151.933 372.626 153.2 368.492 153.2C364.359 153.2 361.092 151.667 358.692 148.6C356.292 145.533 355.092 141.733 355.092 137.2C355.092 132.533 357.026 128.333 360.892 124.6C364.892 120.733 370.559 118.8 377.892 118.8H429.692C446.626 118.8 458.626 121.2 465.692 126C472.092 130.533 475.292 137.067 475.292 145.6C475.292 154 473.159 160.333 468.892 164.6C464.759 168.867 459.292 172.333 452.492 175C461.692 175 470.492 177.867 478.892 183.6C483.292 186.533 486.826 190.8 489.492 196.4C492.159 202 493.492 208.6 493.492 216.2C493.492 223.8 491.959 230.6 488.892 236.6C485.826 242.6 481.826 247.2 476.892 250.4C467.559 256.8 457.692 260 447.292 260ZM428.092 216C424.626 216 421.892 217.467 419.892 220.4C417.892 223.333 416.892 226.4 416.892 229.6C416.892 232.8 417.692 236.333 419.292 240.2C420.892 243.933 423.892 247.533 428.292 251C432.692 254.333 437.826 256 443.692 256C449.559 256 454.492 254.667 458.492 252C462.626 249.333 465.692 245.867 467.692 241.6C471.426 233.6 473.292 224.467 473.292 214.2C473.292 203.8 470.359 195.533 464.492 189.4C458.626 183.267 452.492 180.2 446.092 180.2C439.692 180.2 428.692 184.867 413.092 194.2V227.2C413.626 222.267 415.559 218.533 418.892 216C422.226 213.333 425.492 212 428.692 212C432.026 212 435.026 212.6 437.692 213.8C440.359 215 441.692 216.2 441.692 217.4C441.692 217.933 441.426 218.467 440.892 219C440.492 219.4 440.092 219.6 439.692 219.6C439.426 219.6 438.292 219 436.292 217.8C434.292 216.6 431.559 216 428.092 216ZM413.092 189.4L437.692 176.4C449.426 170.133 455.292 160.2 455.292 146.6C455.292 135.933 452.492 129.067 446.892 126C442.359 123.6 435.959 122.4 427.692 122.4H413.092V189.4Z" fill="white"/>
<path d="M295.145 401C301.678 402.467 306.878 405.333 310.745 409.6C314.745 413.867 316.745 418.867 316.745 424.6C316.745 432.333 313.478 438.533 306.945 443.2C300.411 447.733 291.611 450 280.545 450H238.745L237.345 446.4C240.678 445.467 243.078 444.6 244.545 443.8C246.011 442.867 247.011 441.667 247.545 440.2C248.078 438.733 248.345 436.467 248.345 433.4V379.2C248.345 374.533 247.945 371.133 247.145 369C246.478 366.867 244.811 365 242.145 363.4L239.745 362L240.545 359.4C244.811 358.067 250.278 357 256.945 356.2C263.745 355.267 269.878 354.8 275.345 354.8C287.078 354.8 296.211 357 302.745 361.4C309.411 365.8 312.745 371.933 312.745 379.8C312.745 384.733 311.145 389.067 307.945 392.8C304.878 396.4 300.611 399.133 295.145 401ZM280.345 445.6C285.145 445.6 289.078 443.667 292.145 439.8C295.345 435.933 296.945 431 296.945 425C296.945 418.867 294.878 413.867 290.745 410C286.611 406.133 280.745 403.533 273.145 402.2V399.8C279.278 399.8 284.078 398 287.545 394.4C291.145 390.8 292.945 385.933 292.945 379.8C292.945 373.667 291.478 368.8 288.545 365.2C285.611 361.467 281.678 359.6 276.745 359.6C273.811 359.6 271.545 360.6 269.945 362.6C268.345 364.467 267.545 367.133 267.545 370.6V427.8C267.545 433.267 268.678 437.6 270.945 440.8C273.345 444 276.478 445.6 280.345 445.6ZM327.388 446.4C330.455 445.6 332.655 444.8 333.988 444C335.455 443.067 336.388 441.867 336.788 440.4C337.322 438.8 337.588 436.467 337.588 433.4V381.4C337.588 375 337.055 370.533 335.988 368C335.055 365.333 332.655 362.4 328.788 359.2L330.588 356.6H364.388L365.788 359.8C361.922 362.067 359.455 364.2 358.388 366.2C357.322 368.067 356.788 371.467 356.788 376.4V425.6C356.788 431.867 357.255 436.333 358.188 439C359.255 441.533 361.655 444.4 365.388 447.6L363.788 450H328.788L327.388 446.4ZM466.179 443.2C463.246 446.267 460.246 448.467 457.179 449.8C454.112 451.133 450.712 451.8 446.979 451.8C441.779 451.8 437.779 450.533 434.979 448C432.179 445.333 429.512 440.667 426.979 434L419.379 414.4C417.779 410.8 416.246 408.2 414.779 406.6C413.312 404.867 410.912 404 407.579 404V425.6C407.579 431.733 408.046 436.133 408.979 438.8C410.046 441.333 412.446 444.267 416.179 447.6L414.779 450H378.779L377.379 446.4C380.712 445.467 383.112 444.6 384.579 443.8C386.046 442.867 387.046 441.667 387.579 440.2C388.112 438.733 388.379 436.467 388.379 433.4V381.4C388.379 375 387.846 370.533 386.779 368C385.846 365.333 383.512 362.4 379.779 359.2L381.379 356.6H416.179L417.579 359.8C413.312 362.067 410.579 364.2 409.379 366.2C408.179 368.2 407.579 371.6 407.579 376.4V401.2H408.179L431.979 374.2C433.179 372.733 433.979 371.467 434.379 370.4C434.912 369.2 435.246 367.867 435.379 366.4C435.379 365.467 434.846 363.667 433.779 361L432.579 358.8L435.179 356.6H458.779L459.979 360.2L455.379 361.6C451.646 363.2 448.112 365.867 444.779 369.6L416.779 401.6C423.712 402.133 429.179 403.6 433.179 406C437.179 408.267 440.112 411.667 441.979 416.2L451.179 439.4C451.846 441.133 452.646 442.4 453.579 443.2C454.512 443.867 455.712 444.2 457.179 444.2C459.312 444.2 461.779 443.133 464.579 441L466.179 443.2ZM479.199 382.8C479.199 377.467 478.799 373.267 477.999 370.2C477.199 367.133 475.666 364.067 473.399 361L471.799 358.8L473.399 356.6H517.599C524.933 356.6 529.866 355.733 532.399 354L534.799 352.2L536.799 354V379L532.799 380.4C530.399 373.2 527.999 368.267 525.599 365.6C523.333 362.933 520.066 361.6 515.799 361.6H506.799C503.333 361.6 501.066 362.267 499.999 363.6C498.933 364.8 498.399 367.467 498.399 371.6V400H512.799C516.799 400 519.733 399.6 521.599 398.8C523.599 398 525.066 396.4 525.999 394L526.999 391.2L529.599 392.8V415.2L525.199 416.8L524.399 412.4C523.866 409.6 522.399 407.667 519.999 406.6C517.599 405.533 513.733 405 508.399 405H498.399V435.2C498.399 439.2 498.999 441.867 500.199 443.2C501.399 444.4 504.066 445 508.199 445H517.999C521.999 445 525.133 443.6 527.399 440.8C529.799 438 532.066 433.133 534.199 426.2L538.399 427.6V451.6L536.199 453.4C534.333 452.067 532.199 451.133 529.799 450.6C527.399 450.2 524.066 450 519.799 450H469.599L468.199 446.4C471.533 445.467 473.933 444.6 475.399 443.8C476.866 442.867 477.866 441.667 478.399 440.2C478.933 438.733 479.199 436.467 479.199 433.4V382.8ZM638.616 443.2C633.816 448.933 627.55 451.8 619.816 451.8C615.016 451.8 611.216 450.733 608.416 448.6C605.75 446.333 603.416 442.533 601.416 437.2L595.616 419.6C594.283 416 593.083 413.4 592.016 411.8C590.95 410.067 589.283 408.733 587.016 407.8L583.616 406L584.016 404C585.083 404.133 586.483 404.2 588.216 404.2C589.816 404.2 590.95 404.133 591.616 404C596.55 403.2 600.416 400.933 603.216 397.2C606.016 393.467 607.416 388.667 607.416 382.8C607.416 375.733 605.75 370.133 602.416 366C599.083 361.733 594.683 359.6 589.216 359.6C583.216 359.6 580.216 362.4 580.216 368V423.8C580.216 429 580.616 433.2 581.416 436.4C582.35 439.467 583.95 442.533 586.216 445.6L587.816 448L586.216 450H551.416L550.016 446.4C553.35 445.467 555.75 444.6 557.216 443.8C558.683 442.867 559.683 441.667 560.216 440.2C560.75 438.733 561.016 436.467 561.016 433.4V380.2C561.016 375.533 560.616 372 559.816 369.6C559.15 367.067 557.483 365 554.816 363.4L552.416 362L553.216 359.4C557.35 358.067 562.616 357 569.016 356.2C575.55 355.267 581.35 354.8 586.416 354.8C599.083 354.8 609.083 357.333 616.416 362.4C623.75 367.467 627.416 374.4 627.416 383.2C627.416 389.333 625.416 394.8 621.416 399.6C617.55 404.267 612.55 407.4 606.416 409C611.216 411.133 614.55 414.733 616.416 419.8L623.416 439.4C624.483 442.6 626.55 444.2 629.616 444.2C632.016 444.2 634.483 443.133 637.016 441L638.616 443.2Z" fill="white"/>
<path d="M269.727 494C269.883 493.641 270.047 493.273 270.219 492.898C270.391 492.508 270.57 492.07 270.758 491.586C270.961 491.102 271.18 490.555 271.414 489.945C271.648 489.336 271.914 488.617 272.211 487.789L279.219 468.406H282.992L290 487.789C290.297 488.602 290.562 489.32 290.797 489.945C291.031 490.555 291.242 491.102 291.43 491.586C291.633 492.07 291.812 492.508 291.969 492.898C292.141 493.289 292.297 493.656 292.438 494H288.852L286.461 487.25H275.68L273.336 494H269.727ZM281.07 471.828L276.641 484.531H285.523L281.07 471.828ZM314.492 491.117C316.211 491.117 317.734 491.109 319.062 491.094C320.406 491.062 321.43 490.977 322.133 490.836V494H306.969C307.094 493.297 307.164 492.289 307.18 490.977C307.211 489.648 307.227 488.117 307.227 486.383V476.023C307.227 474.289 307.211 472.766 307.18 471.453C307.164 470.125 307.094 469.109 306.969 468.406H310.578V491.117H314.492ZM339.477 479.164V481.977H329.516V491.117H334.133C335.852 491.117 337.305 491.109 338.492 491.094C339.68 491.062 340.625 490.977 341.328 490.836V494H325.906C326.031 493.297 326.102 492.289 326.117 490.977C326.148 489.648 326.164 488.117 326.164 486.383V476.023C326.164 474.289 326.148 472.766 326.117 471.453C326.102 470.125 326.031 469.109 325.906 468.406H340.789V471.289H329.516V479.164H339.477ZM365.797 491.281C364.891 491.922 364.039 492.445 363.242 492.852C362.445 493.258 361.672 493.578 360.922 493.812C360.172 494.047 359.438 494.211 358.719 494.305C358 494.398 357.266 494.445 356.516 494.445C354.859 494.445 353.328 494.164 351.922 493.602C350.531 493.023 349.328 492.18 348.312 491.07C347.312 489.961 346.523 488.594 345.945 486.969C345.383 485.344 345.102 483.477 345.102 481.367C345.102 479.273 345.414 477.398 346.039 475.742C346.68 474.07 347.539 472.664 348.617 471.523C349.711 470.367 350.992 469.484 352.461 468.875C353.93 468.266 355.508 467.961 357.195 467.961C357.898 467.961 358.586 467.992 359.258 468.055C359.93 468.117 360.602 468.242 361.273 468.43C361.945 468.602 362.625 468.852 363.312 469.18C364.016 469.492 364.75 469.906 365.516 470.422L364.391 473.562C363.734 473.047 363.094 472.625 362.469 472.297C361.859 471.953 361.258 471.688 360.664 471.5C360.086 471.297 359.508 471.156 358.93 471.078C358.352 471 357.773 470.961 357.195 470.961C355.852 470.961 354.641 471.195 353.562 471.664C352.5 472.133 351.594 472.797 350.844 473.656C350.094 474.516 349.516 475.562 349.109 476.797C348.719 478.031 348.523 479.406 348.523 480.922C348.523 482.547 348.711 484.008 349.086 485.305C349.477 486.586 350.023 487.68 350.727 488.586C351.445 489.477 352.305 490.164 353.305 490.648C354.32 491.133 355.453 491.375 356.703 491.375C357.219 491.375 357.711 491.352 358.18 491.305C358.648 491.258 359.109 491.172 359.562 491.047C360.016 490.906 360.477 490.734 360.945 490.531C361.414 490.312 361.922 490.039 362.469 489.711V483.828H356.328V480.922H365.797V491.281ZM384.711 479.164V481.977H374.75V491.117H379.367C381.086 491.117 382.539 491.109 383.727 491.094C384.914 491.062 385.859 490.977 386.562 490.836V494H371.141C371.266 493.297 371.336 492.289 371.352 490.977C371.383 489.648 371.398 488.117 371.398 486.383V476.023C371.398 474.289 371.383 472.766 371.352 471.453C371.336 470.125 371.266 469.109 371.141 468.406H386.023V471.289H374.75V479.164H384.711ZM394.648 473.844V494H391.484C391.609 493.297 391.68 492.289 391.695 490.977C391.727 489.648 391.742 488.117 391.742 486.383V476.023C391.742 474.289 391.727 472.766 391.695 471.453C391.68 470.125 391.609 469.109 391.484 468.406H394.648L408.57 488.656V468.406H411.711C411.602 469.109 411.531 470.125 411.5 471.453C411.484 472.766 411.477 474.289 411.477 476.023V494H408.57L394.648 473.844ZM418.039 476.469C418.039 475.609 418.039 474.773 418.039 473.961C418.039 473.133 418.031 472.367 418.016 471.664C418 470.961 417.969 470.328 417.922 469.766C417.891 469.203 417.844 468.75 417.781 468.406C418.156 468.391 418.664 468.375 419.305 468.359C419.961 468.328 420.664 468.305 421.414 468.289C422.18 468.273 422.945 468.266 423.711 468.266C424.477 468.25 425.156 468.242 425.75 468.242C426.375 468.242 427.109 468.297 427.953 468.406C428.812 468.5 429.695 468.703 430.602 469.016C431.508 469.328 432.398 469.773 433.273 470.352C434.164 470.914 434.961 471.672 435.664 472.625C436.367 473.562 436.93 474.719 437.352 476.094C437.789 477.469 438.008 479.109 438.008 481.016C438.008 482.75 437.812 484.281 437.422 485.609C437.047 486.938 436.531 488.094 435.875 489.078C435.234 490.047 434.484 490.859 433.625 491.516C432.781 492.172 431.891 492.703 430.953 493.109C430.016 493.5 429.07 493.781 428.117 493.953C427.164 494.109 426.258 494.188 425.398 494.188C425.117 494.188 424.789 494.18 424.414 494.164C424.055 494.164 423.664 494.156 423.242 494.141C422.836 494.141 422.414 494.133 421.977 494.117C421.555 494.117 421.141 494.109 420.734 494.094C419.781 494.062 418.797 494.031 417.781 494C417.844 493.656 417.891 493.211 417.922 492.664C417.953 492.102 417.977 491.477 417.992 490.789C418.008 490.086 418.016 489.336 418.016 488.539C418.016 487.727 418.023 486.891 418.039 486.031V476.469ZM421.391 491.117C421.797 491.148 422.328 491.188 422.984 491.234C423.641 491.266 424.391 491.281 425.234 491.281C426.406 491.281 427.555 491.102 428.68 490.742C429.805 490.383 430.805 489.812 431.68 489.031C432.555 488.25 433.258 487.234 433.789 485.984C434.336 484.719 434.609 483.18 434.609 481.367C434.609 479.414 434.359 477.781 433.859 476.469C433.359 475.141 432.688 474.078 431.844 473.281C431 472.484 430.016 471.914 428.891 471.57C427.766 471.227 426.57 471.055 425.305 471.055C425.023 471.055 424.695 471.055 424.32 471.055C423.961 471.055 423.602 471.062 423.242 471.078C422.883 471.078 422.539 471.086 422.211 471.102C421.883 471.102 421.609 471.102 421.391 471.102V491.117ZM440.82 494C440.977 493.641 441.141 493.273 441.312 492.898C441.484 492.508 441.664 492.07 441.852 491.586C442.055 491.102 442.273 490.555 442.508 489.945C442.742 489.336 443.008 488.617 443.305 487.789L450.312 468.406H454.086L461.094 487.789C461.391 488.602 461.656 489.32 461.891 489.945C462.125 490.555 462.336 491.102 462.523 491.586C462.727 492.07 462.906 492.508 463.062 492.898C463.234 493.289 463.391 493.656 463.531 494H459.945L457.555 487.25H446.773L444.43 494H440.82ZM452.164 471.828L447.734 484.531H456.617L452.164 471.828ZM471.031 486.383C471.031 488.117 471.039 489.648 471.055 490.977C471.07 492.305 471.141 493.312 471.266 494H467.422C467.547 493.297 467.617 492.289 467.633 490.977C467.664 489.648 467.68 488.117 467.68 486.383V476.469C467.68 475.609 467.68 474.773 467.68 473.961C467.68 473.133 467.672 472.367 467.656 471.664C467.641 470.961 467.609 470.328 467.562 469.766C467.531 469.203 467.484 468.75 467.422 468.406C468 468.391 468.664 468.367 469.414 468.336C470.055 468.305 470.805 468.281 471.664 468.266C472.539 468.25 473.492 468.242 474.523 468.242C475.883 468.242 477.125 468.383 478.25 468.664C479.375 468.93 480.344 469.352 481.156 469.93C481.969 470.508 482.594 471.25 483.031 472.156C483.484 473.062 483.711 474.148 483.711 475.414C483.711 476.477 483.539 477.422 483.195 478.25C482.867 479.062 482.43 479.766 481.883 480.359C481.352 480.953 480.742 481.445 480.055 481.836C479.367 482.211 478.672 482.5 477.969 482.703C478.312 483.172 478.734 483.758 479.234 484.461C479.75 485.148 480.297 485.883 480.875 486.664C481.453 487.445 482.039 488.234 482.633 489.031C483.227 489.828 483.781 490.57 484.297 491.258C484.812 491.93 485.258 492.516 485.633 493.016C486.023 493.5 486.297 493.828 486.453 494H481.953L474.57 483.055H471.031V486.383ZM471.031 480.336H474.336C476.32 480.336 477.828 479.93 478.859 479.117C479.891 478.289 480.406 477.141 480.406 475.672C480.406 474.172 479.93 473.031 478.977 472.25C478.023 471.453 476.477 471.055 474.336 471.055C473.727 471.055 473.133 471.062 472.555 471.078C471.992 471.078 471.484 471.086 471.031 471.102V480.336ZM492.195 468.406L499.109 479.984L505.672 468.406H509.703C509.188 469.156 508.727 469.828 508.32 470.422C507.93 471.016 507.562 471.586 507.219 472.133C506.891 472.664 506.57 473.188 506.258 473.703C505.961 474.219 505.648 474.758 505.32 475.32L500.609 483.43V486.383C500.609 488.117 500.617 489.648 500.633 490.977C500.648 492.289 500.719 493.297 500.844 494H497C497.125 493.297 497.195 492.289 497.211 490.977C497.242 489.648 497.258 488.117 497.258 486.383V483.289L492.617 475.32C492.289 474.742 491.961 474.18 491.633 473.633C491.305 473.086 490.961 472.539 490.602 471.992C490.258 471.43 489.883 470.859 489.477 470.281C489.07 469.688 488.625 469.062 488.141 468.406H492.195ZM522.008 494C522.164 493.641 522.328 493.273 522.5 492.898C522.672 492.508 522.852 492.07 523.039 491.586C523.242 491.102 523.461 490.555 523.695 489.945C523.93 489.336 524.195 488.617 524.492 487.789L531.5 468.406H535.273L542.281 487.789C542.578 488.602 542.844 489.32 543.078 489.945C543.312 490.555 543.523 491.102 543.711 491.586C543.914 492.07 544.094 492.508 544.25 492.898C544.422 493.289 544.578 493.656 544.719 494H541.133L538.742 487.25H527.961L525.617 494H522.008ZM533.352 471.828L528.922 484.531H537.805L533.352 471.828ZM552.219 486.383C552.219 488.117 552.227 489.648 552.242 490.977C552.258 492.305 552.328 493.312 552.453 494H548.609C548.734 493.297 548.805 492.289 548.82 490.977C548.852 489.648 548.867 488.117 548.867 486.383V476.469C548.867 475.609 548.867 474.773 548.867 473.961C548.867 473.133 548.859 472.367 548.844 471.664C548.828 470.961 548.797 470.328 548.75 469.766C548.719 469.203 548.672 468.75 548.609 468.406C549.328 468.391 550.102 468.367 550.93 468.336C551.633 468.305 552.43 468.281 553.32 468.266C554.211 468.25 555.125 468.242 556.062 468.242C557.469 468.242 558.742 468.406 559.883 468.734C561.039 469.047 562.016 469.531 562.812 470.188C563.625 470.828 564.25 471.633 564.688 472.602C565.125 473.555 565.344 474.672 565.344 475.953C565.344 477.234 565.125 478.391 564.688 479.422C564.266 480.453 563.656 481.328 562.859 482.047C562.062 482.766 561.086 483.32 559.93 483.711C558.789 484.086 557.5 484.273 556.062 484.273C555.406 484.273 554.734 484.266 554.047 484.25C553.375 484.219 552.766 484.164 552.219 484.086V486.383ZM552.219 481.367C552.766 481.445 553.328 481.5 553.906 481.531C554.5 481.547 555.125 481.555 555.781 481.555C557.016 481.555 558.031 481.414 558.828 481.133C559.641 480.836 560.281 480.453 560.75 479.984C561.234 479.5 561.57 478.945 561.758 478.32C561.945 477.68 562.039 477.008 562.039 476.305C562.039 475.602 561.938 474.938 561.734 474.312C561.531 473.672 561.188 473.109 560.703 472.625C560.234 472.141 559.602 471.758 558.805 471.477C558.023 471.195 557.047 471.055 555.875 471.055C555.469 471.055 555.102 471.055 554.773 471.055C554.445 471.055 554.141 471.062 553.859 471.078C553.578 471.078 553.305 471.086 553.039 471.102C552.789 471.102 552.516 471.102 552.219 471.102V481.367ZM573.172 486.383C573.172 488.117 573.18 489.648 573.195 490.977C573.211 492.305 573.281 493.312 573.406 494H569.562C569.688 493.297 569.758 492.289 569.773 490.977C569.805 489.648 569.82 488.117 569.82 486.383V476.469C569.82 475.609 569.82 474.773 569.82 473.961C569.82 473.133 569.812 472.367 569.797 471.664C569.781 470.961 569.75 470.328 569.703 469.766C569.672 469.203 569.625 468.75 569.562 468.406C570.281 468.391 571.055 468.367 571.883 468.336C572.586 468.305 573.383 468.281 574.273 468.266C575.164 468.25 576.078 468.242 577.016 468.242C578.422 468.242 579.695 468.406 580.836 468.734C581.992 469.047 582.969 469.531 583.766 470.188C584.578 470.828 585.203 471.633 585.641 472.602C586.078 473.555 586.297 474.672 586.297 475.953C586.297 477.234 586.078 478.391 585.641 479.422C585.219 480.453 584.609 481.328 583.812 482.047C583.016 482.766 582.039 483.32 580.883 483.711C579.742 484.086 578.453 484.273 577.016 484.273C576.359 484.273 575.688 484.266 575 484.25C574.328 484.219 573.719 484.164 573.172 484.086V486.383ZM573.172 481.367C573.719 481.445 574.281 481.5 574.859 481.531C575.453 481.547 576.078 481.555 576.734 481.555C577.969 481.555 578.984 481.414 579.781 481.133C580.594 480.836 581.234 480.453 581.703 479.984C582.188 479.5 582.523 478.945 582.711 478.32C582.898 477.68 582.992 477.008 582.992 476.305C582.992 475.602 582.891 474.938 582.688 474.312C582.484 473.672 582.141 473.109 581.656 472.625C581.188 472.141 580.555 471.758 579.758 471.477C578.977 471.195 578 471.055 576.828 471.055C576.422 471.055 576.055 471.055 575.727 471.055C575.398 471.055 575.094 471.062 574.812 471.078C574.531 471.078 574.258 471.086 573.992 471.102C573.742 471.102 573.469 471.102 573.172 471.102V481.367ZM590.961 492.078C590.961 491.75 591.016 491.445 591.125 491.164C591.25 490.867 591.414 490.617 591.617 490.414C591.836 490.195 592.086 490.023 592.367 489.898C592.664 489.773 592.977 489.711 593.305 489.711C593.633 489.711 593.938 489.773 594.219 489.898C594.5 490.023 594.75 490.195 594.969 490.414C595.188 490.617 595.359 490.867 595.484 491.164C595.609 491.445 595.672 491.75 595.672 492.078C595.672 492.406 595.609 492.711 595.484 492.992C595.359 493.273 595.188 493.523 594.969 493.742C594.75 493.961 594.5 494.133 594.219 494.258C593.938 494.383 593.633 494.445 593.305 494.445C592.977 494.445 592.664 494.383 592.367 494.258C592.086 494.133 591.836 493.961 591.617 493.742C591.414 493.523 591.25 493.273 591.125 492.992C591.016 492.711 590.961 492.406 590.961 492.078Z" fill="white"/>
<defs>
<filter id="filter0_d" x="321.747" y="38.4966" width="224.506" height="295.007" filterUnits="userSpaceOnUse" color-interpolation-filters="sRGB">
<feFlood flood-opacity="0" result="BackgroundImageFix"/>
<feColorMatrix in="SourceAlpha" type="matrix" values="0 0 0 0 0 0 0 0 0 0 0 0 0 0 0 0 0 0 127 0"/>
<feOffset dy="4"/>
<feGaussianBlur stdDeviation="2"/>
<feColorMatrix type="matrix" values="0 0 0 0 0 0 0 0 0 0 0 0 0 0 0 0 0 0 0.25 0"/>
<feBlend mode="normal" in2="BackgroundImageFix" result="effect1_dropShadow"/>
<feBlend mode="normal" in="SourceGraphic" in2="effect1_dropShadow" result="shape"/>
</filter>
</defs>
</svg>
