<svg width="677" height="302" viewBox="0 0 677 302" fill="none" xmlns="http://www.w3.org/2000/svg">
<g filter="url(#filter0_d)">
<path d="M107.915 11.8367C118.192 4.71653 131.808 4.71652 142.085 11.8367L220.338 66.0521C228.427 71.6563 233.253 80.8713 233.253 90.712V209.288C233.253 219.129 228.427 228.344 220.338 233.948L142.085 288.163C131.808 295.283 118.192 295.283 107.915 288.163L29.662 233.948C21.573 228.344 16.7468 219.129 16.7468 209.288V90.712C16.7468 80.8713 21.573 71.6563 29.662 66.0521L107.915 11.8367Z" fill="#EC6E33"/>
</g>
<path d="M138.292 228C127.892 228 119.892 225.6 114.292 220.8C108.826 215.867 105.426 209.4 104.092 201.4V226H83.8922V90.4H68.6922C62.4255 90.4 57.7589 91.8667 54.6922 94.8C51.6255 97.6 50.0922 100.933 50.0922 104.8C50.0922 108.667 51.0255 111.733 52.8922 114C54.8922 116.267 57.2922 117.4 60.0922 117.4C62.8922 117.4 65.1589 116.667 66.8922 115.2C68.6255 113.733 69.9589 112.267 70.8922 110.8C71.8255 109.333 72.6255 108.6 73.2922 108.6C73.9589 108.6 74.2922 109.467 74.2922 111.2C74.2922 112.8 72.8255 114.867 69.8922 117.4C67.0922 119.933 63.6255 121.2 59.4922 121.2C55.3589 121.2 52.0922 119.667 49.6922 116.6C47.2922 113.533 46.0922 109.733 46.0922 105.2C46.0922 100.533 48.0255 96.3333 51.8922 92.6C55.8922 88.7333 61.5589 86.8 68.8922 86.8H120.692C137.626 86.8 149.626 89.2 156.692 94C163.092 98.5333 166.292 105.067 166.292 113.6C166.292 122 164.159 128.333 159.892 132.6C155.759 136.867 150.292 140.333 143.492 143C152.692 143 161.492 145.867 169.892 151.6C174.292 154.533 177.826 158.8 180.492 164.4C183.159 170 184.492 176.6 184.492 184.2C184.492 191.8 182.959 198.6 179.892 204.6C176.826 210.6 172.826 215.2 167.892 218.4C158.559 224.8 148.692 228 138.292 228ZM119.092 184C115.626 184 112.892 185.467 110.892 188.4C108.892 191.333 107.892 194.4 107.892 197.6C107.892 200.8 108.692 204.333 110.292 208.2C111.892 211.933 114.892 215.533 119.292 219C123.692 222.333 128.826 224 134.692 224C140.559 224 145.492 222.667 149.492 220C153.626 217.333 156.692 213.867 158.692 209.6C162.426 201.6 164.292 192.467 164.292 182.2C164.292 171.8 161.359 163.533 155.492 157.4C149.626 151.267 143.492 148.2 137.092 148.2C130.692 148.2 119.692 152.867 104.092 162.2V195.2C104.626 190.267 106.559 186.533 109.892 184C113.226 181.333 116.492 180 119.692 180C123.026 180 126.026 180.6 128.692 181.8C131.359 183 132.692 184.2 132.692 185.4C132.692 185.933 132.426 186.467 131.892 187C131.492 187.4 131.092 187.6 130.692 187.6C130.426 187.6 129.292 187 127.292 185.8C125.292 184.6 122.559 184 119.092 184ZM104.092 157.4L128.692 144.4C140.426 138.133 146.292 128.2 146.292 114.6C146.292 103.933 143.492 97.0667 137.892 94C133.359 91.6 126.959 90.4 118.692 90.4H104.092V157.4Z" fill="white"/>
<path d="M313.145 112C319.678 113.467 324.878 116.333 328.745 120.6C332.745 124.867 334.745 129.867 334.745 135.6C334.745 143.333 331.478 149.533 324.945 154.2C318.411 158.733 309.611 161 298.545 161H256.745L255.345 157.4C258.678 156.467 261.078 155.6 262.545 154.8C264.011 153.867 265.011 152.667 265.545 151.2C266.078 149.733 266.345 147.467 266.345 144.4V90.2C266.345 85.5333 265.945 82.1333 265.145 80C264.478 77.8667 262.811 76 260.145 74.4L257.745 73L258.545 70.4C262.811 69.0667 268.278 68 274.945 67.2C281.745 66.2667 287.878 65.8 293.345 65.8C305.078 65.8 314.211 68 320.745 72.4C327.411 76.8 330.745 82.9333 330.745 90.8C330.745 95.7333 329.145 100.067 325.945 103.8C322.878 107.4 318.611 110.133 313.145 112ZM298.345 156.6C303.145 156.6 307.078 154.667 310.145 150.8C313.345 146.933 314.945 142 314.945 136C314.945 129.867 312.878 124.867 308.745 121C304.611 117.133 298.745 114.533 291.145 113.2V110.8C297.278 110.8 302.078 109 305.545 105.4C309.145 101.8 310.945 96.9333 310.945 90.8C310.945 84.6667 309.478 79.8 306.545 76.2C303.611 72.4667 299.678 70.6 294.745 70.6C291.811 70.6 289.545 71.6 287.945 73.6C286.345 75.4667 285.545 78.1333 285.545 81.6V138.8C285.545 144.267 286.678 148.6 288.945 151.8C291.345 155 294.478 156.6 298.345 156.6ZM345.388 157.4C348.455 156.6 350.655 155.8 351.988 155C353.455 154.067 354.388 152.867 354.788 151.4C355.322 149.8 355.588 147.467 355.588 144.4V92.4C355.588 86 355.055 81.5333 353.988 79C353.055 76.3333 350.655 73.4 346.788 70.2L348.588 67.6H382.388L383.788 70.8C379.922 73.0667 377.455 75.2 376.388 77.2C375.322 79.0667 374.788 82.4667 374.788 87.4V136.6C374.788 142.867 375.255 147.333 376.188 150C377.255 152.533 379.655 155.4 383.388 158.6L381.788 161H346.788L345.388 157.4ZM484.179 154.2C481.246 157.267 478.246 159.467 475.179 160.8C472.112 162.133 468.712 162.8 464.979 162.8C459.779 162.8 455.779 161.533 452.979 159C450.179 156.333 447.512 151.667 444.979 145L437.379 125.4C435.779 121.8 434.246 119.2 432.779 117.6C431.312 115.867 428.912 115 425.579 115V136.6C425.579 142.733 426.046 147.133 426.979 149.8C428.046 152.333 430.446 155.267 434.179 158.6L432.779 161H396.779L395.379 157.4C398.712 156.467 401.112 155.6 402.579 154.8C404.046 153.867 405.046 152.667 405.579 151.2C406.112 149.733 406.379 147.467 406.379 144.4V92.4C406.379 86 405.846 81.5333 404.779 79C403.846 76.3333 401.512 73.4 397.779 70.2L399.379 67.6H434.179L435.579 70.8C431.312 73.0667 428.579 75.2 427.379 77.2C426.179 79.2 425.579 82.6 425.579 87.4V112.2H426.179L449.979 85.2C451.179 83.7333 451.979 82.4667 452.379 81.4C452.912 80.2 453.246 78.8667 453.379 77.4C453.379 76.4667 452.846 74.6667 451.779 72L450.579 69.8L453.179 67.6H476.779L477.979 71.2L473.379 72.6C469.646 74.2 466.112 76.8667 462.779 80.6L434.779 112.6C441.712 113.133 447.179 114.6 451.179 117C455.179 119.267 458.112 122.667 459.979 127.2L469.179 150.4C469.846 152.133 470.646 153.4 471.579 154.2C472.512 154.867 473.712 155.2 475.179 155.2C477.312 155.2 479.779 154.133 482.579 152L484.179 154.2ZM497.199 93.8C497.199 88.4667 496.799 84.2667 495.999 81.2C495.199 78.1333 493.666 75.0667 491.399 72L489.799 69.8L491.399 67.6H535.599C542.933 67.6 547.866 66.7333 550.399 65L552.799 63.2L554.799 65V90L550.799 91.4C548.399 84.2 545.999 79.2667 543.599 76.6C541.333 73.9333 538.066 72.6 533.799 72.6H524.799C521.333 72.6 519.066 73.2667 517.999 74.6C516.933 75.8 516.399 78.4667 516.399 82.6V111H530.799C534.799 111 537.733 110.6 539.599 109.8C541.599 109 543.066 107.4 543.999 105L544.999 102.2L547.599 103.8V126.2L543.199 127.8L542.399 123.4C541.866 120.6 540.399 118.667 537.999 117.6C535.599 116.533 531.733 116 526.399 116H516.399V146.2C516.399 150.2 516.999 152.867 518.199 154.2C519.399 155.4 522.066 156 526.199 156H535.999C539.999 156 543.133 154.6 545.399 151.8C547.799 149 550.066 144.133 552.199 137.2L556.399 138.6V162.6L554.199 164.4C552.333 163.067 550.199 162.133 547.799 161.6C545.399 161.2 542.066 161 537.799 161H487.599L486.199 157.4C489.533 156.467 491.933 155.6 493.399 154.8C494.866 153.867 495.866 152.667 496.399 151.2C496.933 149.733 497.199 147.467 497.199 144.4V93.8ZM656.616 154.2C651.816 159.933 645.55 162.8 637.816 162.8C633.016 162.8 629.216 161.733 626.416 159.6C623.75 157.333 621.416 153.533 619.416 148.2L613.616 130.6C612.283 127 611.083 124.4 610.016 122.8C608.95 121.067 607.283 119.733 605.016 118.8L601.616 117L602.016 115C603.083 115.133 604.483 115.2 606.216 115.2C607.816 115.2 608.95 115.133 609.616 115C614.55 114.2 618.416 111.933 621.216 108.2C624.016 104.467 625.416 99.6667 625.416 93.8C625.416 86.7333 623.75 81.1333 620.416 77C617.083 72.7333 612.683 70.6 607.216 70.6C601.216 70.6 598.216 73.4 598.216 79V134.8C598.216 140 598.616 144.2 599.416 147.4C600.35 150.467 601.95 153.533 604.216 156.6L605.816 159L604.216 161H569.416L568.016 157.4C571.35 156.467 573.75 155.6 575.216 154.8C576.683 153.867 577.683 152.667 578.216 151.2C578.75 149.733 579.016 147.467 579.016 144.4V91.2C579.016 86.5333 578.616 83 577.816 80.6C577.15 78.0667 575.483 76 572.816 74.4L570.416 73L571.216 70.4C575.35 69.0667 580.616 68 587.016 67.2C593.55 66.2667 599.35 65.8 604.416 65.8C617.083 65.8 627.083 68.3333 634.416 73.4C641.75 78.4667 645.416 85.4 645.416 94.2C645.416 100.333 643.416 105.8 639.416 110.6C635.55 115.267 630.55 118.4 624.416 120C629.216 122.133 632.55 125.733 634.416 130.8L641.416 150.4C642.483 153.6 644.55 155.2 647.616 155.2C650.016 155.2 652.483 154.133 655.016 152L656.616 154.2Z" fill="#922F34"/>
<path d="M287.727 205C287.883 204.641 288.047 204.273 288.219 203.898C288.391 203.508 288.57 203.07 288.758 202.586C288.961 202.102 289.18 201.555 289.414 200.945C289.648 200.336 289.914 199.617 290.211 198.789L297.219 179.406H300.992L308 198.789C308.297 199.602 308.562 200.32 308.797 200.945C309.031 201.555 309.242 202.102 309.43 202.586C309.633 203.07 309.812 203.508 309.969 203.898C310.141 204.289 310.297 204.656 310.438 205H306.852L304.461 198.25H293.68L291.336 205H287.727ZM299.07 182.828L294.641 195.531H303.523L299.07 182.828ZM332.492 202.117C334.211 202.117 335.734 202.109 337.062 202.094C338.406 202.062 339.43 201.977 340.133 201.836V205H324.969C325.094 204.297 325.164 203.289 325.18 201.977C325.211 200.648 325.227 199.117 325.227 197.383V187.023C325.227 185.289 325.211 183.766 325.18 182.453C325.164 181.125 325.094 180.109 324.969 179.406H328.578V202.117H332.492ZM357.477 190.164V192.977H347.516V202.117H352.133C353.852 202.117 355.305 202.109 356.492 202.094C357.68 202.062 358.625 201.977 359.328 201.836V205H343.906C344.031 204.297 344.102 203.289 344.117 201.977C344.148 200.648 344.164 199.117 344.164 197.383V187.023C344.164 185.289 344.148 183.766 344.117 182.453C344.102 181.125 344.031 180.109 343.906 179.406H358.789V182.289H347.516V190.164H357.477ZM383.797 202.281C382.891 202.922 382.039 203.445 381.242 203.852C380.445 204.258 379.672 204.578 378.922 204.812C378.172 205.047 377.438 205.211 376.719 205.305C376 205.398 375.266 205.445 374.516 205.445C372.859 205.445 371.328 205.164 369.922 204.602C368.531 204.023 367.328 203.18 366.312 202.07C365.312 200.961 364.523 199.594 363.945 197.969C363.383 196.344 363.102 194.477 363.102 192.367C363.102 190.273 363.414 188.398 364.039 186.742C364.68 185.07 365.539 183.664 366.617 182.523C367.711 181.367 368.992 180.484 370.461 179.875C371.93 179.266 373.508 178.961 375.195 178.961C375.898 178.961 376.586 178.992 377.258 179.055C377.93 179.117 378.602 179.242 379.273 179.43C379.945 179.602 380.625 179.852 381.312 180.18C382.016 180.492 382.75 180.906 383.516 181.422L382.391 184.562C381.734 184.047 381.094 183.625 380.469 183.297C379.859 182.953 379.258 182.688 378.664 182.5C378.086 182.297 377.508 182.156 376.93 182.078C376.352 182 375.773 181.961 375.195 181.961C373.852 181.961 372.641 182.195 371.562 182.664C370.5 183.133 369.594 183.797 368.844 184.656C368.094 185.516 367.516 186.562 367.109 187.797C366.719 189.031 366.523 190.406 366.523 191.922C366.523 193.547 366.711 195.008 367.086 196.305C367.477 197.586 368.023 198.68 368.727 199.586C369.445 200.477 370.305 201.164 371.305 201.648C372.32 202.133 373.453 202.375 374.703 202.375C375.219 202.375 375.711 202.352 376.18 202.305C376.648 202.258 377.109 202.172 377.562 202.047C378.016 201.906 378.477 201.734 378.945 201.531C379.414 201.312 379.922 201.039 380.469 200.711V194.828H374.328V191.922H383.797V202.281ZM402.711 190.164V192.977H392.75V202.117H397.367C399.086 202.117 400.539 202.109 401.727 202.094C402.914 202.062 403.859 201.977 404.562 201.836V205H389.141C389.266 204.297 389.336 203.289 389.352 201.977C389.383 200.648 389.398 199.117 389.398 197.383V187.023C389.398 185.289 389.383 183.766 389.352 182.453C389.336 181.125 389.266 180.109 389.141 179.406H404.023V182.289H392.75V190.164H402.711ZM412.648 184.844V205H409.484C409.609 204.297 409.68 203.289 409.695 201.977C409.727 200.648 409.742 199.117 409.742 197.383V187.023C409.742 185.289 409.727 183.766 409.695 182.453C409.68 181.125 409.609 180.109 409.484 179.406H412.648L426.57 199.656V179.406H429.711C429.602 180.109 429.531 181.125 429.5 182.453C429.484 183.766 429.477 185.289 429.477 187.023V205H426.57L412.648 184.844ZM436.039 187.469C436.039 186.609 436.039 185.773 436.039 184.961C436.039 184.133 436.031 183.367 436.016 182.664C436 181.961 435.969 181.328 435.922 180.766C435.891 180.203 435.844 179.75 435.781 179.406C436.156 179.391 436.664 179.375 437.305 179.359C437.961 179.328 438.664 179.305 439.414 179.289C440.18 179.273 440.945 179.266 441.711 179.266C442.477 179.25 443.156 179.242 443.75 179.242C444.375 179.242 445.109 179.297 445.953 179.406C446.812 179.5 447.695 179.703 448.602 180.016C449.508 180.328 450.398 180.773 451.273 181.352C452.164 181.914 452.961 182.672 453.664 183.625C454.367 184.562 454.93 185.719 455.352 187.094C455.789 188.469 456.008 190.109 456.008 192.016C456.008 193.75 455.812 195.281 455.422 196.609C455.047 197.938 454.531 199.094 453.875 200.078C453.234 201.047 452.484 201.859 451.625 202.516C450.781 203.172 449.891 203.703 448.953 204.109C448.016 204.5 447.07 204.781 446.117 204.953C445.164 205.109 444.258 205.188 443.398 205.188C443.117 205.188 442.789 205.18 442.414 205.164C442.055 205.164 441.664 205.156 441.242 205.141C440.836 205.141 440.414 205.133 439.977 205.117C439.555 205.117 439.141 205.109 438.734 205.094C437.781 205.062 436.797 205.031 435.781 205C435.844 204.656 435.891 204.211 435.922 203.664C435.953 203.102 435.977 202.477 435.992 201.789C436.008 201.086 436.016 200.336 436.016 199.539C436.016 198.727 436.023 197.891 436.039 197.031V187.469ZM439.391 202.117C439.797 202.148 440.328 202.188 440.984 202.234C441.641 202.266 442.391 202.281 443.234 202.281C444.406 202.281 445.555 202.102 446.68 201.742C447.805 201.383 448.805 200.812 449.68 200.031C450.555 199.25 451.258 198.234 451.789 196.984C452.336 195.719 452.609 194.18 452.609 192.367C452.609 190.414 452.359 188.781 451.859 187.469C451.359 186.141 450.688 185.078 449.844 184.281C449 183.484 448.016 182.914 446.891 182.57C445.766 182.227 444.57 182.055 443.305 182.055C443.023 182.055 442.695 182.055 442.32 182.055C441.961 182.055 441.602 182.062 441.242 182.078C440.883 182.078 440.539 182.086 440.211 182.102C439.883 182.102 439.609 182.102 439.391 182.102V202.117ZM458.82 205C458.977 204.641 459.141 204.273 459.312 203.898C459.484 203.508 459.664 203.07 459.852 202.586C460.055 202.102 460.273 201.555 460.508 200.945C460.742 200.336 461.008 199.617 461.305 198.789L468.312 179.406H472.086L479.094 198.789C479.391 199.602 479.656 200.32 479.891 200.945C480.125 201.555 480.336 202.102 480.523 202.586C480.727 203.07 480.906 203.508 481.062 203.898C481.234 204.289 481.391 204.656 481.531 205H477.945L475.555 198.25H464.773L462.43 205H458.82ZM470.164 182.828L465.734 195.531H474.617L470.164 182.828ZM489.031 197.383C489.031 199.117 489.039 200.648 489.055 201.977C489.07 203.305 489.141 204.312 489.266 205H485.422C485.547 204.297 485.617 203.289 485.633 201.977C485.664 200.648 485.68 199.117 485.68 197.383V187.469C485.68 186.609 485.68 185.773 485.68 184.961C485.68 184.133 485.672 183.367 485.656 182.664C485.641 181.961 485.609 181.328 485.562 180.766C485.531 180.203 485.484 179.75 485.422 179.406C486 179.391 486.664 179.367 487.414 179.336C488.055 179.305 488.805 179.281 489.664 179.266C490.539 179.25 491.492 179.242 492.523 179.242C493.883 179.242 495.125 179.383 496.25 179.664C497.375 179.93 498.344 180.352 499.156 180.93C499.969 181.508 500.594 182.25 501.031 183.156C501.484 184.062 501.711 185.148 501.711 186.414C501.711 187.477 501.539 188.422 501.195 189.25C500.867 190.062 500.43 190.766 499.883 191.359C499.352 191.953 498.742 192.445 498.055 192.836C497.367 193.211 496.672 193.5 495.969 193.703C496.312 194.172 496.734 194.758 497.234 195.461C497.75 196.148 498.297 196.883 498.875 197.664C499.453 198.445 500.039 199.234 500.633 200.031C501.227 200.828 501.781 201.57 502.297 202.258C502.812 202.93 503.258 203.516 503.633 204.016C504.023 204.5 504.297 204.828 504.453 205H499.953L492.57 194.055H489.031V197.383ZM489.031 191.336H492.336C494.32 191.336 495.828 190.93 496.859 190.117C497.891 189.289 498.406 188.141 498.406 186.672C498.406 185.172 497.93 184.031 496.977 183.25C496.023 182.453 494.477 182.055 492.336 182.055C491.727 182.055 491.133 182.062 490.555 182.078C489.992 182.078 489.484 182.086 489.031 182.102V191.336ZM510.195 179.406L517.109 190.984L523.672 179.406H527.703C527.188 180.156 526.727 180.828 526.32 181.422C525.93 182.016 525.562 182.586 525.219 183.133C524.891 183.664 524.57 184.188 524.258 184.703C523.961 185.219 523.648 185.758 523.32 186.32L518.609 194.43V197.383C518.609 199.117 518.617 200.648 518.633 201.977C518.648 203.289 518.719 204.297 518.844 205H515C515.125 204.297 515.195 203.289 515.211 201.977C515.242 200.648 515.258 199.117 515.258 197.383V194.289L510.617 186.32C510.289 185.742 509.961 185.18 509.633 184.633C509.305 184.086 508.961 183.539 508.602 182.992C508.258 182.43 507.883 181.859 507.477 181.281C507.07 180.688 506.625 180.062 506.141 179.406H510.195ZM540.008 205C540.164 204.641 540.328 204.273 540.5 203.898C540.672 203.508 540.852 203.07 541.039 202.586C541.242 202.102 541.461 201.555 541.695 200.945C541.93 200.336 542.195 199.617 542.492 198.789L549.5 179.406H553.273L560.281 198.789C560.578 199.602 560.844 200.32 561.078 200.945C561.312 201.555 561.523 202.102 561.711 202.586C561.914 203.07 562.094 203.508 562.25 203.898C562.422 204.289 562.578 204.656 562.719 205H559.133L556.742 198.25H545.961L543.617 205H540.008ZM551.352 182.828L546.922 195.531H555.805L551.352 182.828ZM570.219 197.383C570.219 199.117 570.227 200.648 570.242 201.977C570.258 203.305 570.328 204.312 570.453 205H566.609C566.734 204.297 566.805 203.289 566.82 201.977C566.852 200.648 566.867 199.117 566.867 197.383V187.469C566.867 186.609 566.867 185.773 566.867 184.961C566.867 184.133 566.859 183.367 566.844 182.664C566.828 181.961 566.797 181.328 566.75 180.766C566.719 180.203 566.672 179.75 566.609 179.406C567.328 179.391 568.102 179.367 568.93 179.336C569.633 179.305 570.43 179.281 571.32 179.266C572.211 179.25 573.125 179.242 574.062 179.242C575.469 179.242 576.742 179.406 577.883 179.734C579.039 180.047 580.016 180.531 580.812 181.188C581.625 181.828 582.25 182.633 582.688 183.602C583.125 184.555 583.344 185.672 583.344 186.953C583.344 188.234 583.125 189.391 582.688 190.422C582.266 191.453 581.656 192.328 580.859 193.047C580.062 193.766 579.086 194.32 577.93 194.711C576.789 195.086 575.5 195.273 574.062 195.273C573.406 195.273 572.734 195.266 572.047 195.25C571.375 195.219 570.766 195.164 570.219 195.086V197.383ZM570.219 192.367C570.766 192.445 571.328 192.5 571.906 192.531C572.5 192.547 573.125 192.555 573.781 192.555C575.016 192.555 576.031 192.414 576.828 192.133C577.641 191.836 578.281 191.453 578.75 190.984C579.234 190.5 579.57 189.945 579.758 189.32C579.945 188.68 580.039 188.008 580.039 187.305C580.039 186.602 579.938 185.938 579.734 185.312C579.531 184.672 579.188 184.109 578.703 183.625C578.234 183.141 577.602 182.758 576.805 182.477C576.023 182.195 575.047 182.055 573.875 182.055C573.469 182.055 573.102 182.055 572.773 182.055C572.445 182.055 572.141 182.062 571.859 182.078C571.578 182.078 571.305 182.086 571.039 182.102C570.789 182.102 570.516 182.102 570.219 182.102V192.367ZM591.172 197.383C591.172 199.117 591.18 200.648 591.195 201.977C591.211 203.305 591.281 204.312 591.406 205H587.562C587.688 204.297 587.758 203.289 587.773 201.977C587.805 200.648 587.82 199.117 587.82 197.383V187.469C587.82 186.609 587.82 185.773 587.82 184.961C587.82 184.133 587.812 183.367 587.797 182.664C587.781 181.961 587.75 181.328 587.703 180.766C587.672 180.203 587.625 179.75 587.562 179.406C588.281 179.391 589.055 179.367 589.883 179.336C590.586 179.305 591.383 179.281 592.273 179.266C593.164 179.25 594.078 179.242 595.016 179.242C596.422 179.242 597.695 179.406 598.836 179.734C599.992 180.047 600.969 180.531 601.766 181.188C602.578 181.828 603.203 182.633 603.641 183.602C604.078 184.555 604.297 185.672 604.297 186.953C604.297 188.234 604.078 189.391 603.641 190.422C603.219 191.453 602.609 192.328 601.812 193.047C601.016 193.766 600.039 194.32 598.883 194.711C597.742 195.086 596.453 195.273 595.016 195.273C594.359 195.273 593.688 195.266 593 195.25C592.328 195.219 591.719 195.164 591.172 195.086V197.383ZM591.172 192.367C591.719 192.445 592.281 192.5 592.859 192.531C593.453 192.547 594.078 192.555 594.734 192.555C595.969 192.555 596.984 192.414 597.781 192.133C598.594 191.836 599.234 191.453 599.703 190.984C600.188 190.5 600.523 189.945 600.711 189.32C600.898 188.68 600.992 188.008 600.992 187.305C600.992 186.602 600.891 185.938 600.688 185.312C600.484 184.672 600.141 184.109 599.656 183.625C599.188 183.141 598.555 182.758 597.758 182.477C596.977 182.195 596 182.055 594.828 182.055C594.422 182.055 594.055 182.055 593.727 182.055C593.398 182.055 593.094 182.062 592.812 182.078C592.531 182.078 592.258 182.086 591.992 182.102C591.742 182.102 591.469 182.102 591.172 182.102V192.367ZM608.961 203.078C608.961 202.75 609.016 202.445 609.125 202.164C609.25 201.867 609.414 201.617 609.617 201.414C609.836 201.195 610.086 201.023 610.367 200.898C610.664 200.773 610.977 200.711 611.305 200.711C611.633 200.711 611.938 200.773 612.219 200.898C612.5 201.023 612.75 201.195 612.969 201.414C613.188 201.617 613.359 201.867 613.484 202.164C613.609 202.445 613.672 202.75 613.672 203.078C613.672 203.406 613.609 203.711 613.484 203.992C613.359 204.273 613.188 204.523 612.969 204.742C612.75 204.961 612.5 205.133 612.219 205.258C611.938 205.383 611.633 205.445 611.305 205.445C610.977 205.445 610.664 205.383 610.367 205.258C610.086 205.133 609.836 204.961 609.617 204.742C609.414 204.523 609.25 204.273 609.125 203.992C609.016 203.711 608.961 203.406 608.961 203.078Z" fill="#922F34"/>
<defs>
<filter id="filter0_d" x="12.7468" y="6.49658" width="224.506" height="295.007" filterUnits="userSpaceOnUse" color-interpolation-filters="sRGB">
<feFlood flood-opacity="0" result="BackgroundImageFix"/>
<feColorMatrix in="SourceAlpha" type="matrix" values="0 0 0 0 0 0 0 0 0 0 0 0 0 0 0 0 0 0 127 0"/>
<feOffset dy="4"/>
<feGaussianBlur stdDeviation="2"/>
<feColorMatrix type="matrix" values="0 0 0 0 0 0 0 0 0 0 0 0 0 0 0 0 0 0 0.25 0"/>
<feBlend mode="normal" in2="BackgroundImageFix" result="effect1_dropShadow"/>
<feBlend mode="normal" in="SourceGraphic" in2="effect1_dropShadow" result="shape"/>
</filter>
</defs>
</svg>
