<svg width="250" height="302" viewBox="0 0 250 302" fill="none" xmlns="http://www.w3.org/2000/svg">
<g filter="url(#filter0_d)">
<path d="M107.915 11.8367C118.192 4.71653 131.808 4.71652 142.085 11.8367L220.338 66.0521C228.427 71.6563 233.253 80.8713 233.253 90.712V209.288C233.253 219.129 228.427 228.344 220.338 233.948L142.085 288.163C131.808 295.283 118.192 295.283 107.915 288.163L29.662 233.948C21.573 228.344 16.7468 219.129 16.7468 209.288V90.712C16.7468 80.8713 21.573 71.6563 29.662 66.0521L107.915 11.8367Z" fill="#EC6E33"/>
</g>
<path d="M138.292 228C127.892 228 119.892 225.6 114.292 220.8C108.826 215.867 105.426 209.4 104.092 201.4V226H83.8922V90.4H68.6922C62.4255 90.4 57.7589 91.8667 54.6922 94.8C51.6255 97.6 50.0922 100.933 50.0922 104.8C50.0922 108.667 51.0255 111.733 52.8922 114C54.8922 116.267 57.2922 117.4 60.0922 117.4C62.8922 117.4 65.1589 116.667 66.8922 115.2C68.6255 113.733 69.9589 112.267 70.8922 110.8C71.8255 109.333 72.6255 108.6 73.2922 108.6C73.9589 108.6 74.2922 109.467 74.2922 111.2C74.2922 112.8 72.8255 114.867 69.8922 117.4C67.0922 119.933 63.6255 121.2 59.4922 121.2C55.3589 121.2 52.0922 119.667 49.6922 116.6C47.2922 113.533 46.0922 109.733 46.0922 105.2C46.0922 100.533 48.0255 96.3333 51.8922 92.6C55.8922 88.7333 61.5589 86.8 68.8922 86.8H120.692C137.626 86.8 149.626 89.2 156.692 94C163.092 98.5333 166.292 105.067 166.292 113.6C166.292 122 164.159 128.333 159.892 132.6C155.759 136.867 150.292 140.333 143.492 143C152.692 143 161.492 145.867 169.892 151.6C174.292 154.533 177.826 158.8 180.492 164.4C183.159 170 184.492 176.6 184.492 184.2C184.492 191.8 182.959 198.6 179.892 204.6C176.826 210.6 172.826 215.2 167.892 218.4C158.559 224.8 148.692 228 138.292 228ZM119.092 184C115.626 184 112.892 185.467 110.892 188.4C108.892 191.333 107.892 194.4 107.892 197.6C107.892 200.8 108.692 204.333 110.292 208.2C111.892 211.933 114.892 215.533 119.292 219C123.692 222.333 128.826 224 134.692 224C140.559 224 145.492 222.667 149.492 220C153.626 217.333 156.692 213.867 158.692 209.6C162.426 201.6 164.292 192.467 164.292 182.2C164.292 171.8 161.359 163.533 155.492 157.4C149.626 151.267 143.492 148.2 137.092 148.2C130.692 148.2 119.692 152.867 104.092 162.2V195.2C104.626 190.267 106.559 186.533 109.892 184C113.226 181.333 116.492 180 119.692 180C123.026 180 126.026 180.6 128.692 181.8C131.359 183 132.692 184.2 132.692 185.4C132.692 185.933 132.426 186.467 131.892 187C131.492 187.4 131.092 187.6 130.692 187.6C130.426 187.6 129.292 187 127.292 185.8C125.292 184.6 122.559 184 119.092 184ZM104.092 157.4L128.692 144.4C140.426 138.133 146.292 128.2 146.292 114.6C146.292 103.933 143.492 97.0667 137.892 94C133.359 91.6 126.959 90.4 118.692 90.4H104.092V157.4Z" fill="white"/>
<defs>
<filter id="filter0_d" x="12.7468" y="6.49658" width="224.506" height="295.007" filterUnits="userSpaceOnUse" color-interpolation-filters="sRGB">
<feFlood flood-opacity="0" result="BackgroundImageFix"/>
<feColorMatrix in="SourceAlpha" type="matrix" values="0 0 0 0 0 0 0 0 0 0 0 0 0 0 0 0 0 0 127 0"/>
<feOffset dy="4"/>
<feGaussianBlur stdDeviation="2"/>
<feColorMatrix type="matrix" values="0 0 0 0 0 0 0 0 0 0 0 0 0 0 0 0 0 0 0.25 0"/>
<feBlend mode="normal" in2="BackgroundImageFix" result="effect1_dropShadow"/>
<feBlend mode="normal" in="SourceGraphic" in2="effect1_dropShadow" result="shape"/>
</filter>
</defs>
</svg>
